<?xml version="1.0" standalone="no"?>
<!DOCTYPE svg PUBLIC "-//W3C//DTD SVG 20010904//EN"
 "http://www.w3.org/TR/2001/REC-SVG-20010904/DTD/svg10.dtd">
<svg version="1.0" xmlns="http://www.w3.org/2000/svg"
 width="345.000000pt" height="345.000000pt" viewBox="0 0 345.000000 345.000000"
 preserveAspectRatio="xMidYMid meet">
<metadata>
Created by potrace 1.11, written by Peter Selinger 2001-2013
</metadata>
<g transform="translate(0.000000,345.000000) scale(0.100000,-0.100000)"
fill="#000000" stroke="none">
<path d="M1588 3386 c-288 -83 -382 -446 -172 -659 215 -216 583 -116 661 180
47 180 -45 373 -216 455 -54 26 -81 32 -146 35 -46 1 -100 -3 -127 -11z"/>
<path d="M2648 2846 c-288 -83 -382 -446 -172 -659 215 -216 583 -116 661 180
47 180 -45 373 -216 455 -54 26 -81 32 -146 35 -46 1 -100 -3 -127 -11z"/>
<path d="M538 2836 c-288 -83 -382 -446 -172 -659 215 -216 583 -116 661 180
47 180 -45 373 -216 455 -54 26 -81 32 -146 35 -46 1 -100 -3 -127 -11z"/>
<path d="M1588 2286 c-288 -83 -382 -446 -172 -659 215 -216 583 -116 661 180
47 180 -45 373 -216 455 -54 26 -81 32 -146 35 -46 1 -100 -3 -127 -11z"/>
<path d="M572 1915 c-66 -20 -118 -61 -161 -127 -77 -114 -78 -118 -90 -553
-7 -233 -8 -402 -2 -421 14 -48 37 -87 73 -121 50 -49 814 -418 1138 -551 169
-69 200 -71 355 -18 265 89 651 312 1041 602 129 95 114 57 140 349 23 260 24
483 1 564 -46 166 -115 243 -250 277 -176 46 -324 -41 -397 -234 -21 -54 -35
-207 -49 -532 -12 -267 -28 -301 -145 -308 -117 -8 -145 25 -194 225 -46 184
-101 271 -198 314 -91 41 -245 33 -329 -16 -89 -52 -125 -116 -150 -269 -19
-119 -53 -190 -105 -218 -50 -28 -138 -20 -186 17 -44 33 -83 92 -95 142 -5
21 -9 155 -9 298 -1 290 -9 347 -62 447 -65 123 -193 175 -326 133z"/>
</g>
</svg>
